<svg width="530.288" height="66.177" viewBox="0 0 530.288 66.177" xmlns="http://www.w3.org/2000/svg"><g id="svgGroup" stroke-linecap="round" fill-rule="evenodd" font-size="9pt" stroke="#000000" stroke-width="0.1mm" fill="#ffffff" style="stroke:#000000;stroke-width:0.1mm;fill:#ffffff"><path d="M 272.888 65.12 L 262.504 65.12 L 245.784 5.544 L 254.056 2.904 L 267.96 56.232 L 281.072 9.944 L 291.544 9.944 L 304.568 56.232 L 318.384 3.168 L 326.128 5.544 L 309.496 65.12 L 299.112 65.12 L 286.088 18.832 L 272.888 65.12 Z M 486.376 60.72 L 480.92 66 L 457.248 41.624 L 457.248 65.12 L 449.328 65.12 L 449.328 0 L 457.248 0 L 457.248 37.224 L 477.928 18.48 L 482.504 23.496 L 464.816 39.16 L 486.376 60.72 Z M 57.024 62.92 L 49.368 66 L 42.504 48.4 L 13.992 48.4 L 7.128 65.824 L 0 62.92 L 24.112 3.52 L 33.264 3.52 L 57.024 62.92 Z M 382.184 61.424 L 385.528 54.824 Q 387.808 56.753 391.267 58.027 A 26.663 26.663 0 0 0 391.292 58.036 A 21.184 21.184 0 0 0 397.99 59.301 A 24.169 24.169 0 0 0 398.728 59.312 Q 403.473 59.312 405.975 57.802 A 6.81 6.81 0 0 0 406.164 57.684 A 6.555 6.555 0 0 0 407.513 56.546 A 4.446 4.446 0 0 0 408.672 53.504 A 6.268 6.268 0 0 0 408.396 51.614 A 5.467 5.467 0 0 0 407.748 50.248 A 5.618 5.618 0 0 0 406.931 49.285 Q 406.038 48.43 404.566 47.591 A 19.627 19.627 0 0 0 404.36 47.476 A 25.047 25.047 0 0 0 402.605 46.602 Q 400.439 45.617 397.232 44.528 Q 392.899 43.044 390.027 41.18 A 17.014 17.014 0 0 1 387.596 39.292 A 9.965 9.965 0 0 1 384.698 34.015 A 14.779 14.779 0 0 1 384.384 30.888 A 10.666 10.666 0 0 1 387.858 22.955 A 15.367 15.367 0 0 1 389.004 21.956 A 15.633 15.633 0 0 1 394.316 19.275 Q 397.588 18.304 401.808 18.304 A 35.899 35.899 0 0 1 405.72 18.507 Q 407.817 18.737 409.64 19.228 A 34.117 34.117 0 0 1 413.278 20.421 A 27.377 27.377 0 0 1 415.8 21.56 L 413.6 28.072 A 21.585 21.585 0 0 0 410.372 26.518 A 26.569 26.569 0 0 0 408.188 25.784 A 22.021 22.021 0 0 0 404.243 25.038 A 28.017 28.017 0 0 0 401.456 24.904 A 18.156 18.156 0 0 0 398.872 25.076 Q 397.556 25.265 396.49 25.664 A 7.488 7.488 0 0 0 394.504 26.752 A 8.203 8.203 0 0 0 393.309 27.873 Q 392.128 29.249 392.128 30.8 A 4.33 4.33 0 0 0 393.444 33.925 A 6.232 6.232 0 0 0 393.976 34.408 Q 395.793 35.879 401.015 37.606 A 74.292 74.292 0 0 0 401.192 37.664 A 59.623 59.623 0 0 1 405.647 39.334 Q 409.882 41.134 412.309 43.146 A 13.153 13.153 0 0 1 413.336 44.088 A 11.965 11.965 0 0 1 416.754 52.225 A 15.748 15.748 0 0 1 416.768 52.888 Q 416.768 59.048 411.796 62.612 Q 406.824 66.176 398.464 66.176 A 35.191 35.191 0 0 1 393.306 65.814 A 27.234 27.234 0 0 1 389.092 64.856 Q 384.912 63.536 382.184 61.424 Z M 72.336 61.336 L 72.336 65.12 L 64.944 65.12 L 64.944 0 L 72.864 0 L 72.864 24.112 A 13.65 13.65 0 0 1 74.525 22.52 Q 75.419 21.788 76.538 21.074 A 29.316 29.316 0 0 1 78.012 20.196 A 14.594 14.594 0 0 1 82.615 18.593 A 19.733 19.733 0 0 1 86.064 18.304 Q 91.344 18.304 95.964 21.076 A 19.65 19.65 0 0 1 102.281 27.207 A 24.169 24.169 0 0 1 103.4 29.084 Q 106.092 34.09 106.211 41.147 A 38.963 38.963 0 0 1 106.216 41.8 A 29.317 29.317 0 0 1 105.612 47.861 A 24.42 24.42 0 0 1 104.456 51.744 A 25.843 25.843 0 0 1 101.674 57.028 A 22.424 22.424 0 0 1 99.748 59.444 A 21.907 21.907 0 0 1 94.352 63.768 A 20.506 20.506 0 0 1 93.104 64.416 A 17.605 17.605 0 0 1 86.622 66.141 A 16.904 16.904 0 0 1 85.536 66.176 Q 81.576 66.176 78.1 64.724 A 26.641 26.641 0 0 1 75.194 63.309 Q 73.587 62.395 72.336 61.336 Z M 154.264 45.496 L 122.232 45.496 Q 123.024 51.92 126.72 55.528 A 12.447 12.447 0 0 0 133.43 58.881 A 17.619 17.619 0 0 0 136.488 59.136 Q 140.448 59.136 143.616 58.3 Q 146.784 57.464 149.688 56.144 L 151.536 62.92 Q 148.368 64.328 144.408 65.252 A 34.245 34.245 0 0 1 139.927 65.973 A 45.782 45.782 0 0 1 135.52 66.176 A 24.92 24.92 0 0 1 128.703 65.291 A 18.575 18.575 0 0 1 119.9 59.884 A 20.699 20.699 0 0 1 115.319 51.489 Q 114.432 48.41 114.21 44.747 A 41.47 41.47 0 0 1 114.136 42.24 A 31.115 31.115 0 0 1 114.869 35.357 A 25.379 25.379 0 0 1 116.732 29.964 A 21.685 21.685 0 0 1 121.146 23.732 A 20.141 20.141 0 0 1 123.992 21.428 A 18.522 18.522 0 0 1 133.02 18.373 A 23.061 23.061 0 0 1 134.816 18.304 A 25.127 25.127 0 0 1 139.63 18.74 Q 143.118 19.421 145.772 21.164 Q 150.128 24.024 152.328 28.864 A 24.803 24.803 0 0 1 154.463 37.544 A 29.422 29.422 0 0 1 154.528 39.512 A 66.179 66.179 0 0 1 154.272 45.405 A 61.121 61.121 0 0 1 154.264 45.496 Z M 530.024 45.496 L 497.992 45.496 Q 498.784 51.92 502.48 55.528 A 12.447 12.447 0 0 0 509.19 58.881 A 17.619 17.619 0 0 0 512.248 59.136 Q 516.208 59.136 519.376 58.3 Q 522.544 57.464 525.448 56.144 L 527.296 62.92 Q 524.128 64.328 520.168 65.252 A 34.245 34.245 0 0 1 515.687 65.973 A 45.782 45.782 0 0 1 511.28 66.176 A 24.92 24.92 0 0 1 504.463 65.291 A 18.575 18.575 0 0 1 495.66 59.884 A 20.699 20.699 0 0 1 491.079 51.489 Q 490.192 48.41 489.97 44.747 A 41.47 41.47 0 0 1 489.896 42.24 A 31.115 31.115 0 0 1 490.629 35.357 A 25.379 25.379 0 0 1 492.492 29.964 A 21.685 21.685 0 0 1 496.906 23.732 A 20.141 20.141 0 0 1 499.752 21.428 A 18.522 18.522 0 0 1 508.78 18.373 A 23.061 23.061 0 0 1 510.576 18.304 A 25.127 25.127 0 0 1 515.39 18.74 Q 518.878 19.421 521.532 21.164 Q 525.888 24.024 528.088 28.864 A 24.803 24.803 0 0 1 530.223 37.544 A 29.422 29.422 0 0 1 530.288 39.512 A 66.179 66.179 0 0 1 530.032 45.405 A 61.121 61.121 0 0 1 530.024 45.496 Z M 363.176 23.056 L 363.176 19.36 L 370.392 19.36 L 370.392 54.032 A 10.692 10.692 0 0 0 370.481 55.471 Q 370.774 57.613 372.02 58.388 Q 373.648 59.4 375.584 59.4 L 373.912 65.56 A 15.596 15.596 0 0 1 370.159 65.144 Q 365.031 63.871 363.704 58.696 A 18.75 18.75 0 0 1 360.968 61.711 A 25.078 25.078 0 0 1 358.204 63.844 A 13.137 13.137 0 0 1 353.845 65.695 Q 352.07 66.112 350.001 66.168 A 23.94 23.94 0 0 1 349.36 66.176 Q 343.64 66.176 338.976 63.272 A 20.193 20.193 0 0 1 332.452 56.649 A 24.572 24.572 0 0 1 331.54 55.044 A 23.96 23.96 0 0 1 329.225 48.055 A 32.247 32.247 0 0 1 328.768 42.504 A 29.165 29.165 0 0 1 329.645 35.227 A 24.612 24.612 0 0 1 331.54 30.184 Q 334.312 24.728 339.196 21.516 Q 344.08 18.304 350.416 18.304 A 19.874 19.874 0 0 1 354.634 18.736 A 16.459 16.459 0 0 1 357.588 19.668 A 22.882 22.882 0 0 1 361.36 21.686 A 19.451 19.451 0 0 1 363.176 23.056 Z M 164.648 50.776 L 164.648 0 L 172.568 0 L 172.568 49.984 A 18.167 18.167 0 0 0 172.733 52.525 Q 172.911 53.782 173.281 54.8 A 7.017 7.017 0 0 0 174.548 57.024 A 6.48 6.48 0 0 0 178.582 59.203 A 9.437 9.437 0 0 0 180.048 59.312 Q 181.72 59.312 183.348 58.916 A 19.529 19.529 0 0 0 184.635 58.558 Q 185.253 58.363 185.779 58.142 A 10.509 10.509 0 0 0 186.12 57.992 L 188.056 64.416 A 15.973 15.973 0 0 1 186.646 64.959 Q 185.945 65.194 185.141 65.404 A 30.781 30.781 0 0 1 184.14 65.648 A 20.958 20.958 0 0 1 181.363 66.075 A 26.852 26.852 0 0 1 178.992 66.176 A 18.359 18.359 0 0 1 174.689 65.689 A 15.439 15.439 0 0 1 171.688 64.636 A 11.161 11.161 0 0 1 167.002 60.442 A 13.953 13.953 0 0 1 166.54 59.664 A 13.864 13.864 0 0 1 165.247 56.274 Q 164.648 53.845 164.648 50.776 Z M 194.216 50.776 L 194.216 0 L 202.136 0 L 202.136 49.984 A 18.167 18.167 0 0 0 202.301 52.525 Q 202.479 53.782 202.849 54.8 A 7.017 7.017 0 0 0 204.116 57.024 A 6.48 6.48 0 0 0 208.15 59.203 A 9.437 9.437 0 0 0 209.616 59.312 Q 211.288 59.312 212.916 58.916 A 19.529 19.529 0 0 0 214.203 58.558 Q 214.821 58.363 215.347 58.142 A 10.509 10.509 0 0 0 215.688 57.992 L 217.624 64.416 A 15.973 15.973 0 0 1 216.214 64.959 Q 215.513 65.194 214.709 65.404 A 30.781 30.781 0 0 1 213.708 65.648 A 20.958 20.958 0 0 1 210.931 66.075 A 26.852 26.852 0 0 1 208.56 66.176 A 18.359 18.359 0 0 1 204.257 65.689 A 15.439 15.439 0 0 1 201.256 64.636 A 11.161 11.161 0 0 1 196.57 60.442 A 13.953 13.953 0 0 1 196.108 59.664 A 13.864 13.864 0 0 1 194.815 56.274 Q 194.216 53.845 194.216 50.776 Z M 435.248 65.12 L 427.328 65.12 L 427.328 19.36 L 435.248 19.36 L 435.248 65.12 Z M 362.472 53.416 L 362.472 28.864 Q 360.096 27.192 357.236 26.18 Q 354.376 25.168 351.208 25.168 A 14.014 14.014 0 0 0 346.833 25.831 A 12.341 12.341 0 0 0 343.772 27.324 A 14.345 14.345 0 0 0 339.355 32.097 A 17.567 17.567 0 0 0 338.712 33.308 Q 336.864 37.136 336.864 42.24 Q 336.864 47.168 338.712 50.996 Q 340.56 54.824 343.816 56.98 Q 347.072 59.136 351.12 59.136 Q 354.464 59.136 357.456 57.508 A 17.116 17.116 0 0 0 361.61 54.383 A 15.902 15.902 0 0 0 362.472 53.416 Z M 72.864 31.152 L 72.864 55.616 A 15.831 15.831 0 0 0 76.058 57.539 A 19.186 19.186 0 0 0 77.616 58.168 A 17.126 17.126 0 0 0 83.04 59.132 A 19.394 19.394 0 0 0 83.424 59.136 Q 87.736 59.136 91.036 57.024 A 14.037 14.037 0 0 0 95.569 52.263 A 17.29 17.29 0 0 0 96.228 51.04 A 18.364 18.364 0 0 0 97.854 45.719 A 24.181 24.181 0 0 0 98.12 42.064 A 24.681 24.681 0 0 0 97.771 37.803 Q 97.307 35.158 96.228 33 Q 94.336 29.216 91.212 27.192 Q 88.088 25.168 84.304 25.168 A 12.972 12.972 0 0 0 79.353 26.103 A 12.367 12.367 0 0 0 77.484 27.06 Q 74.899 28.671 73.366 30.506 A 11.387 11.387 0 0 0 72.864 31.152 Z M 28.248 11.792 L 16.632 41.36 L 39.776 41.36 L 28.248 11.792 Z M 122.144 39.072 L 147.224 39.072 Q 147.224 32.384 143.88 28.776 A 10.99 10.99 0 0 0 137.755 25.453 A 16.188 16.188 0 0 0 134.64 25.168 A 11.951 11.951 0 0 0 130.142 25.991 A 11.021 11.021 0 0 0 126.192 28.732 A 13.345 13.345 0 0 0 123.604 32.858 Q 122.862 34.671 122.454 36.89 A 28.178 28.178 0 0 0 122.144 39.072 Z M 497.904 39.072 L 522.984 39.072 Q 522.984 32.384 519.64 28.776 A 10.99 10.99 0 0 0 513.515 25.453 A 16.188 16.188 0 0 0 510.4 25.168 A 11.951 11.951 0 0 0 505.902 25.991 A 11.021 11.021 0 0 0 501.952 28.732 A 13.345 13.345 0 0 0 499.364 32.858 Q 498.622 34.671 498.214 36.89 A 28.178 28.178 0 0 0 497.904 39.072 Z M 427.449 9.933 A 5.256 5.256 0 0 0 431.288 11.528 A 7.194 7.194 0 0 0 432.605 11.413 A 4.97 4.97 0 0 0 435.336 9.988 A 5.084 5.084 0 0 0 436.59 7.817 A 6.609 6.609 0 0 0 436.832 5.984 A 6.392 6.392 0 0 0 436.832 5.913 A 5.333 5.333 0 0 0 435.204 2.068 A 6.505 6.505 0 0 0 435.153 2.018 A 5.332 5.332 0 0 0 431.288 0.44 A 7.272 7.272 0 0 0 429.831 0.579 A 4.982 4.982 0 0 0 427.24 1.936 A 4.917 4.917 0 0 0 425.946 4.252 A 7.029 7.029 0 0 0 425.744 5.984 A 5.273 5.273 0 0 0 426.177 8.112 A 5.846 5.846 0 0 0 427.372 9.856 A 6.571 6.571 0 0 0 427.449 9.933 Z"/></g></svg>