<svg width="500.72" height="66.177" viewBox="0 0 500.72 66.177" xmlns="http://www.w3.org/2000/svg"><g id="svgGroup" stroke-linecap="round" fill-rule="evenodd" font-size="9pt" stroke="#000000" stroke-width="0.1mm" fill="#ffffff" style="stroke:#000000;stroke-width:0.1mm;fill:#ffffff"><path d="M 243.32 65.12 L 232.936 65.12 L 216.216 5.544 L 224.488 2.904 L 238.392 56.232 L 251.504 9.944 L 261.976 9.944 L 275 56.232 L 288.816 3.168 L 296.56 5.544 L 279.928 65.12 L 269.544 65.12 L 256.52 18.832 L 243.32 65.12 Z M 456.808 60.72 L 451.352 66 L 427.68 41.624 L 427.68 65.12 L 419.76 65.12 L 419.76 0 L 427.68 0 L 427.68 37.224 L 448.36 18.48 L 452.936 23.496 L 435.248 39.16 L 456.808 60.72 Z M 57.024 62.92 L 49.368 66 L 42.504 48.4 L 13.992 48.4 L 7.128 65.824 L 0 62.92 L 24.112 3.52 L 33.264 3.52 L 57.024 62.92 Z M 352.616 61.424 L 355.96 54.824 Q 358.24 56.753 361.699 58.027 A 26.663 26.663 0 0 0 361.724 58.036 A 21.184 21.184 0 0 0 368.422 59.301 A 24.169 24.169 0 0 0 369.16 59.312 Q 373.905 59.312 376.407 57.802 A 6.81 6.81 0 0 0 376.596 57.684 A 6.555 6.555 0 0 0 377.945 56.546 A 4.446 4.446 0 0 0 379.104 53.504 A 6.268 6.268 0 0 0 378.828 51.614 A 5.467 5.467 0 0 0 378.18 50.248 A 5.618 5.618 0 0 0 377.363 49.285 Q 376.47 48.43 374.998 47.591 A 19.627 19.627 0 0 0 374.792 47.476 A 25.047 25.047 0 0 0 373.037 46.602 Q 370.871 45.617 367.664 44.528 Q 363.331 43.044 360.459 41.18 A 17.014 17.014 0 0 1 358.028 39.292 A 9.965 9.965 0 0 1 355.13 34.015 A 14.779 14.779 0 0 1 354.816 30.888 A 10.666 10.666 0 0 1 358.29 22.955 A 15.367 15.367 0 0 1 359.436 21.956 A 15.633 15.633 0 0 1 364.748 19.275 Q 368.02 18.304 372.24 18.304 A 35.899 35.899 0 0 1 376.152 18.507 Q 378.249 18.737 380.072 19.228 A 34.117 34.117 0 0 1 383.71 20.421 A 27.377 27.377 0 0 1 386.232 21.56 L 384.032 28.072 A 21.585 21.585 0 0 0 380.804 26.518 A 26.569 26.569 0 0 0 378.62 25.784 A 22.021 22.021 0 0 0 374.675 25.038 A 28.017 28.017 0 0 0 371.888 24.904 A 18.156 18.156 0 0 0 369.304 25.076 Q 367.988 25.265 366.922 25.664 A 7.488 7.488 0 0 0 364.936 26.752 A 8.203 8.203 0 0 0 363.741 27.873 Q 362.56 29.249 362.56 30.8 A 4.33 4.33 0 0 0 363.876 33.925 A 6.232 6.232 0 0 0 364.408 34.408 Q 366.225 35.879 371.447 37.606 A 74.292 74.292 0 0 0 371.624 37.664 A 59.623 59.623 0 0 1 376.079 39.334 Q 380.314 41.134 382.741 43.146 A 13.153 13.153 0 0 1 383.768 44.088 A 11.965 11.965 0 0 1 387.186 52.225 A 15.748 15.748 0 0 1 387.2 52.888 Q 387.2 59.048 382.228 62.612 Q 377.256 66.176 368.896 66.176 A 35.191 35.191 0 0 1 363.738 65.814 A 27.234 27.234 0 0 1 359.524 64.856 Q 355.344 63.536 352.616 61.424 Z M 72.336 61.336 L 72.336 65.12 L 64.944 65.12 L 64.944 0 L 72.864 0 L 72.864 24.112 A 13.65 13.65 0 0 1 74.525 22.52 Q 75.419 21.788 76.538 21.074 A 29.316 29.316 0 0 1 78.012 20.196 A 14.594 14.594 0 0 1 82.615 18.593 A 19.733 19.733 0 0 1 86.064 18.304 Q 91.344 18.304 95.964 21.076 A 19.65 19.65 0 0 1 102.281 27.207 A 24.169 24.169 0 0 1 103.4 29.084 Q 106.092 34.09 106.211 41.147 A 38.963 38.963 0 0 1 106.216 41.8 A 29.317 29.317 0 0 1 105.612 47.861 A 24.42 24.42 0 0 1 104.456 51.744 A 25.843 25.843 0 0 1 101.674 57.028 A 22.424 22.424 0 0 1 99.748 59.444 A 21.907 21.907 0 0 1 94.352 63.768 A 20.506 20.506 0 0 1 93.104 64.416 A 17.605 17.605 0 0 1 86.622 66.141 A 16.904 16.904 0 0 1 85.536 66.176 Q 81.576 66.176 78.1 64.724 A 26.641 26.641 0 0 1 75.194 63.309 Q 73.587 62.395 72.336 61.336 Z M 154.264 45.496 L 122.232 45.496 Q 123.024 51.92 126.72 55.528 A 12.447 12.447 0 0 0 133.43 58.881 A 17.619 17.619 0 0 0 136.488 59.136 Q 140.448 59.136 143.616 58.3 Q 146.784 57.464 149.688 56.144 L 151.536 62.92 Q 148.368 64.328 144.408 65.252 A 34.245 34.245 0 0 1 139.927 65.973 A 45.782 45.782 0 0 1 135.52 66.176 A 24.92 24.92 0 0 1 128.703 65.291 A 18.575 18.575 0 0 1 119.9 59.884 A 20.699 20.699 0 0 1 115.319 51.489 Q 114.432 48.41 114.21 44.747 A 41.47 41.47 0 0 1 114.136 42.24 A 31.115 31.115 0 0 1 114.869 35.357 A 25.379 25.379 0 0 1 116.732 29.964 A 21.685 21.685 0 0 1 121.146 23.732 A 20.141 20.141 0 0 1 123.992 21.428 A 18.522 18.522 0 0 1 133.02 18.373 A 23.061 23.061 0 0 1 134.816 18.304 A 25.127 25.127 0 0 1 139.63 18.74 Q 143.118 19.421 145.772 21.164 Q 150.128 24.024 152.328 28.864 A 24.803 24.803 0 0 1 154.463 37.544 A 29.422 29.422 0 0 1 154.528 39.512 A 66.179 66.179 0 0 1 154.272 45.405 A 61.121 61.121 0 0 1 154.264 45.496 Z M 500.456 45.496 L 468.424 45.496 Q 469.216 51.92 472.912 55.528 A 12.447 12.447 0 0 0 479.622 58.881 A 17.619 17.619 0 0 0 482.68 59.136 Q 486.64 59.136 489.808 58.3 Q 492.976 57.464 495.88 56.144 L 497.728 62.92 Q 494.56 64.328 490.6 65.252 A 34.245 34.245 0 0 1 486.119 65.973 A 45.782 45.782 0 0 1 481.712 66.176 A 24.92 24.92 0 0 1 474.895 65.291 A 18.575 18.575 0 0 1 466.092 59.884 A 20.699 20.699 0 0 1 461.511 51.489 Q 460.624 48.41 460.402 44.747 A 41.47 41.47 0 0 1 460.328 42.24 A 31.115 31.115 0 0 1 461.061 35.357 A 25.379 25.379 0 0 1 462.924 29.964 A 21.685 21.685 0 0 1 467.338 23.732 A 20.141 20.141 0 0 1 470.184 21.428 A 18.522 18.522 0 0 1 479.212 18.373 A 23.061 23.061 0 0 1 481.008 18.304 A 25.127 25.127 0 0 1 485.822 18.74 Q 489.31 19.421 491.964 21.164 Q 496.32 24.024 498.52 28.864 A 24.803 24.803 0 0 1 500.655 37.544 A 29.422 29.422 0 0 1 500.72 39.512 A 66.179 66.179 0 0 1 500.464 45.405 A 61.121 61.121 0 0 1 500.456 45.496 Z M 333.608 23.056 L 333.608 19.36 L 340.824 19.36 L 340.824 54.032 A 10.692 10.692 0 0 0 340.913 55.471 Q 341.206 57.613 342.452 58.388 Q 344.08 59.4 346.016 59.4 L 344.344 65.56 A 15.596 15.596 0 0 1 340.591 65.144 Q 335.463 63.871 334.136 58.696 A 18.75 18.75 0 0 1 331.4 61.711 A 25.078 25.078 0 0 1 328.636 63.844 A 13.137 13.137 0 0 1 324.277 65.695 Q 322.502 66.112 320.433 66.168 A 23.94 23.94 0 0 1 319.792 66.176 Q 314.072 66.176 309.408 63.272 A 20.193 20.193 0 0 1 302.884 56.649 A 24.572 24.572 0 0 1 301.972 55.044 A 23.96 23.96 0 0 1 299.657 48.055 A 32.247 32.247 0 0 1 299.2 42.504 A 29.165 29.165 0 0 1 300.077 35.227 A 24.612 24.612 0 0 1 301.972 30.184 Q 304.744 24.728 309.628 21.516 Q 314.512 18.304 320.848 18.304 A 19.874 19.874 0 0 1 325.066 18.736 A 16.459 16.459 0 0 1 328.02 19.668 A 22.882 22.882 0 0 1 331.792 21.686 A 19.451 19.451 0 0 1 333.608 23.056 Z M 164.648 50.776 L 164.648 0 L 172.568 0 L 172.568 49.984 A 18.167 18.167 0 0 0 172.733 52.525 Q 172.911 53.782 173.281 54.8 A 7.017 7.017 0 0 0 174.548 57.024 A 6.48 6.48 0 0 0 178.582 59.203 A 9.437 9.437 0 0 0 180.048 59.312 Q 181.72 59.312 183.348 58.916 A 19.529 19.529 0 0 0 184.635 58.558 Q 185.253 58.363 185.779 58.142 A 10.509 10.509 0 0 0 186.12 57.992 L 188.056 64.416 A 15.973 15.973 0 0 1 186.646 64.959 Q 185.945 65.194 185.141 65.404 A 30.781 30.781 0 0 1 184.14 65.648 A 20.958 20.958 0 0 1 181.363 66.075 A 26.852 26.852 0 0 1 178.992 66.176 A 18.359 18.359 0 0 1 174.689 65.689 A 15.439 15.439 0 0 1 171.688 64.636 A 11.161 11.161 0 0 1 167.002 60.442 A 13.953 13.953 0 0 1 166.54 59.664 A 13.864 13.864 0 0 1 165.247 56.274 Q 164.648 53.845 164.648 50.776 Z M 405.68 65.12 L 397.76 65.12 L 397.76 19.36 L 405.68 19.36 L 405.68 65.12 Z M 332.904 53.416 L 332.904 28.864 Q 330.528 27.192 327.668 26.18 Q 324.808 25.168 321.64 25.168 A 14.014 14.014 0 0 0 317.265 25.831 A 12.341 12.341 0 0 0 314.204 27.324 A 14.345 14.345 0 0 0 309.787 32.097 A 17.567 17.567 0 0 0 309.144 33.308 Q 307.296 37.136 307.296 42.24 Q 307.296 47.168 309.144 50.996 Q 310.992 54.824 314.248 56.98 Q 317.504 59.136 321.552 59.136 Q 324.896 59.136 327.888 57.508 A 17.116 17.116 0 0 0 332.042 54.383 A 15.902 15.902 0 0 0 332.904 53.416 Z M 72.864 31.152 L 72.864 55.616 A 15.831 15.831 0 0 0 76.058 57.539 A 19.186 19.186 0 0 0 77.616 58.168 A 17.126 17.126 0 0 0 83.04 59.132 A 19.394 19.394 0 0 0 83.424 59.136 Q 87.736 59.136 91.036 57.024 A 14.037 14.037 0 0 0 95.569 52.263 A 17.29 17.29 0 0 0 96.228 51.04 A 18.364 18.364 0 0 0 97.854 45.719 A 24.181 24.181 0 0 0 98.12 42.064 A 24.681 24.681 0 0 0 97.771 37.803 Q 97.307 35.158 96.228 33 Q 94.336 29.216 91.212 27.192 Q 88.088 25.168 84.304 25.168 A 12.972 12.972 0 0 0 79.353 26.103 A 12.367 12.367 0 0 0 77.484 27.06 Q 74.899 28.671 73.366 30.506 A 11.387 11.387 0 0 0 72.864 31.152 Z M 28.248 11.792 L 16.632 41.36 L 39.776 41.36 L 28.248 11.792 Z M 122.144 39.072 L 147.224 39.072 Q 147.224 32.384 143.88 28.776 A 10.99 10.99 0 0 0 137.755 25.453 A 16.188 16.188 0 0 0 134.64 25.168 A 11.951 11.951 0 0 0 130.142 25.991 A 11.021 11.021 0 0 0 126.192 28.732 A 13.345 13.345 0 0 0 123.604 32.858 Q 122.862 34.671 122.454 36.89 A 28.178 28.178 0 0 0 122.144 39.072 Z M 468.336 39.072 L 493.416 39.072 Q 493.416 32.384 490.072 28.776 A 10.99 10.99 0 0 0 483.947 25.453 A 16.188 16.188 0 0 0 480.832 25.168 A 11.951 11.951 0 0 0 476.334 25.991 A 11.021 11.021 0 0 0 472.384 28.732 A 13.345 13.345 0 0 0 469.796 32.858 Q 469.054 34.671 468.646 36.89 A 28.178 28.178 0 0 0 468.336 39.072 Z M 397.881 9.933 A 5.256 5.256 0 0 0 401.72 11.528 A 7.194 7.194 0 0 0 403.037 11.413 A 4.97 4.97 0 0 0 405.768 9.988 A 5.084 5.084 0 0 0 407.022 7.817 A 6.609 6.609 0 0 0 407.264 5.984 A 6.392 6.392 0 0 0 407.264 5.913 A 5.333 5.333 0 0 0 405.636 2.068 A 6.505 6.505 0 0 0 405.585 2.018 A 5.332 5.332 0 0 0 401.72 0.44 A 7.272 7.272 0 0 0 400.263 0.579 A 4.982 4.982 0 0 0 397.672 1.936 A 4.917 4.917 0 0 0 396.378 4.252 A 7.029 7.029 0 0 0 396.176 5.984 A 5.273 5.273 0 0 0 396.609 8.112 A 5.846 5.846 0 0 0 397.804 9.856 A 6.571 6.571 0 0 0 397.881 9.933 Z"/></g></svg>